<?xml version="1.0" encoding="utf-8"?>
<!-- Generator: Adobe Illustrator 26.3.1, SVG Export Plug-In . SVG Version: 6.00 Build 0)  -->
<svg version="1.1" id="Layer_1" xmlns="http://www.w3.org/2000/svg" xmlns:xlink="http://www.w3.org/1999/xlink" x="0px" y="0px"
	 width="1024px" height="1024px" viewBox="0 0 1024 1024" style="enable-background:new 0 0 1024 1024;" xml:space="preserve">
<style type="text/css">
	.st0{fill:#FFFFFF;}
	.st1{fill:#002789;}
</style>
<g>
	<path class="st0" d="M651.5,868.1c-9.9,0-19.7-0.8-30-2.7c-42.1-8-79.6-31.9-105.4-67.5c-1.5-2.3-3-4.2-4.6-6.4
		c-1.5,2.3-3,4.6-4.6,6.4c-25.8,35.6-63.3,59.5-105.4,67.5c-9.9,1.9-20.1,2.7-30,2.7c-32.2,0-62.9-9.9-88.7-28.8
		c-70.1-50.8-83.4-152.1-30-226c1.9-2.7,4.2-5.3,6.1-8c-3.8-1.1-7.6-2.3-11.4-3.4c-86.8-28.1-135.4-117.9-108.8-200.2
		c12.9-40.2,41.7-72.4,80.8-90.6c38.7-18.2,83-20.9,124.8-7.2c3.4,1.1,6.8,2.3,10.2,3.8c-0.4-4.2-0.4-8-0.4-12.1
		c0-91,70.5-165.3,157-165.3s157,73.9,157,165.3c0,4.2,0,8-0.4,12.1c3.4-1.5,6.8-2.7,10.2-3.8c41.7-13.7,86.1-11,124.8,7.2
		c39.1,18.6,67.9,50.8,80.8,90.6c26.5,82.3-22,172.1-108.8,200.2l0,0c-3.8,1.1-7.6,2.3-11.4,3.4c2.3,2.7,4.2,5.3,6.1,8
		c25.8,35.6,37.2,78.9,31.5,121.3c-5.7,42.8-27.3,80-61,104.7C714.5,858.2,683.4,868.1,651.5,868.1z"/>
	<path class="st1" d="M512,2C230.3,2,2,230.3,2,512s228.3,510,510,510s510-228.3,510-510S793.7,2,512,2z M773.6,596.6L773.6,596.6
		c-6.8,2.3-13.7,3.8-20.5,5.3c4.2,4.6,8.3,9.5,12.1,14.8c51.6,71.3,39.1,169.1-28.4,218c-32.6,23.9-73.6,32.6-114.5,25
		c-40.6-7.6-76.6-30.7-101.6-65.2c-3.4-4.6-6.4-9.1-9.1-14c-2.7,4.9-5.7,9.5-9.1,14c-25,34.5-61,57.6-101.6,65.2
		c-9.5,1.9-19.3,2.7-28.8,2.7c-30.7,0-60.7-9.5-85.7-27.7c-67.5-48.9-80.4-146.7-28.4-218c3.8-5.3,8-10.2,12.1-14.8
		c-6.8-1.1-13.7-3-20.5-5.3c-83.8-27.3-130.8-113.8-105-193c12.5-38.7,40.2-69.8,77.7-87.6c37.5-17.8,80.4-20.1,120.6-7.2
		c6.4,1.9,12.5,4.6,18.6,7.2c-0.8-6.8-1.1-14-1.1-21.2c0-88,67.9-159.6,151.3-159.6s151.3,71.7,151.3,159.6c0,7.2-0.4,14-1.1,21.2
		c6.1-2.7,12.1-5.3,18.6-7.2c40.2-13.3,83-10.6,120.6,7.2c37.5,17.8,65.2,48.9,77.7,87.6C904.5,482.8,857.4,569.6,773.6,596.6z"/>
	<path class="st1" d="M617,568.9c0-15.5,12.9-28.4,28.4-28.4v-30c-15.5,0-28.4-12.9-28.4-28.4c0-15.5,12.9-28.4,28.4-28.4v-22.4
		c0-22-17.8-39.8-39.8-39.8h-22v0.4c0,15.5-12.9,28.4-28.4,28.4s-28.4-12.9-28.4-28.4v-0.4h-30v0.4c0,15.5-12.9,28.4-28.4,28.4
		S440,407.3,440,391.8v-0.4h-22c-22,0-39.8,17.8-39.8,39.8v22.4l0,0c15.5,0,28.4,12.9,28.4,28.4c0,15.5-12.9,28.4-28.4,28.4l0,0v30
		l0,0c15.5,0,28.4,12.9,28.4,28.4s-12.9,28.4-28.4,28.4l0,0v21.6c0,22,17.8,39.8,39.8,39.8h22c0.4-15.5,12.9-28.1,28.4-28.1
		s28.1,12.5,28.4,28.1h30c0-15.5,12.9-28.4,28.4-28.4s28.4,12.9,28.4,28.4h22c22,0,39.8-17.8,39.8-39.8v-21.6
		C629.5,597.3,617,584.4,617,568.9z"/>
</g>
</svg>
